# xmcd
#
# Track frame offsets:
#  150
#  12380
#  25917
#  37180
#  49542
#  62140
#  73135
#  86612
#  100510
#  115365
#  129100
#  142885
#
# Disc length: 2077 seconds
#
# Revision: 1
# Processed by: cddbd v1.5.1PL2 Copyright (c) Steve Scherf et al.
# Submitted via: Collectorz.com_Music_Collector 6.10
#
DISCID=9d081b0c
DTITLE=Sticks McGhee/John Lee Hooker - Highway Of Blues
DYEAR=1988
DGENRE=Blues
TTITLE0=Sticks McGhee - Whiskey, Women And Loaded Dice
TTITLE1=Sticks McGhee - Sas, Bad, Glad
TTITLE2=Sticks McGhee - Head Happy With Wine
TTITLE3=Sticks McGhee - Dealin' From The Bottom
TTITLE4=Sticks McGhee - Get Your Mind Out Of The Gutter
TTITLE5=Sticks McGhee - Jungle Juice
TTITLE6=John Lee Hooker - Nightmare Blues
TTITLE7=John Lee Hooker - Moaning Blues
TTITLE8=John Lee Hooker - Don't Go Baby
TTITLE9=John Lee Hooker - Thinking Blues
TTITLE10=John Lee Hooker - Late Last Night
TTITLE11=John Lee Hooker - Devil's Jump
EXTD=
EXTT0=
EXTT1=
EXTT2=
EXTT3=
EXTT4=
EXTT5=
EXTT6=
EXTT7=
EXTT8=
EXTT9=
EXTT10=
EXTT11=
PLAYORDER=
